<svg xmlns="http://www.w3.org/2000/svg" width="1920" height="387.976" viewBox="0 0 1920 387.976">
  <path id="Path_1" data-name="Path 1" d="M1920.5,450.882H.5V85.617c6.7-1.784,13.387-4.034,20.01.434a4.19,4.19,0,0,0,2.681-.116C34.538,82.265,45.824,78.5,57.21,74.864a67.883,67.883,0,0,1,11.086-2.9c3.462-.5,7.4.551,10.666-.272,9.765-2.467,19.37-5.609,29.2-8.239a11.758,11.758,0,0,1,6.724.574c7.724,3.158,15.148,6.8,22.912,9.892,1.761.7,4.442-.054,6.683-.241,4-.318,9.125-2.18,11.446-.815,6.9,4.073,12.486,3.1,18.75-.365q5.279-2.636,11.346-5.012c8.3,5.043,16.929,10.272,25.533,15.516,4.2,2.576,8.284,4.1,13.367.962a69.344,69.344,0,0,1,10.505-4.655c1.181-.473,3-1.071,3.9-.683,9.045,3.933,18.009,8.115,26.914,12.064,1.841.776,4.762,1.823,6,1.21,7.124-3.32,12.547-.908,18.169,2.452,5.883,3.53,12.006,6.455,19.39,2.048,1.661-1.009,3.5-1.839,5.223-2.793,5.083-2.808,10.185-4.857,16.409-1.893a6.6,6.6,0,0,0,2.535.466,6.956,6.956,0,0,0,2.588-.42c7.044-2.87,14.448-5.477,20.731-9.232s11.666-4.655,17.829-.31c1.181.838,3.2.908,4.422,1.722,4.943,3.313,9.145,1.6,13.347-.97,8.6-5.244,17.209-10.473,25.553-15.516,5.823,2.614,10.505,5.338,15.748,6.819,3.3.946,7.444.171,11.186-.078s7.184-1.6,10.345-.978c6.3,1.226,11.426,1.482,17.049-2.18,5.363-3.491,11.906-7.331,18.31-7.812s13.087,3.057,19.63,4.88q2.488.931,5.243,1.746c5.663,1.14,11.706,3.514,16.989,2.739a22.933,22.933,0,0,1,11.906,1.14q17.489,6.051,35.138,11.839c1.381.458,3.662.776,4.622.186,5.783-3.445,11.346-.908,17.269-.729,8.184.256,16.889.776,24.553.2,11.666-.908,22.712-6.734,34.018-10.373a67.853,67.853,0,0,1,11.086-2.894c3.462-.5,7.4.551,10.665-.272,10.005-2.506,19.67-5.609,29.435-8.247a11.77,11.77,0,0,1,6.723.59c7.724,3.15,15.148,6.8,22.912,9.884,1.761.7,4.442-.054,6.683-.241,4-.318,9.125-2.18,11.446-.815,6.9,4.081,12.487,3.1,18.75-.365q5.271-2.639,11.346-5.012C797.8,72.537,806.42,77.758,815.024,83c4.2,2.576,8.284,4.1,13.367.962A68.571,68.571,0,0,1,838.9,79.31c1.181-.473,3-1.071,3.9-.675,9.045,3.926,17.889,8.107,26.914,12.056,1.821.776,4.762,1.823,6,1.21,7.124-3.32,12.547-.908,18.169,2.452,5.883,3.53,12.006,6.447,19.39,2.048,1.661-1.009,3.5-1.846,5.223-2.8,5.083-2.808,10.185-4.849,16.409-1.885a6.668,6.668,0,0,0,2.535.463,7.024,7.024,0,0,0,2.588-.416c7.044-2.878,14.448-5.477,20.731-9.232s11.666-4.655,17.829-.31c1.181.838,3.2.908,4.422,1.73,4.943,3.3,9.145,1.552,13.347-.978,8.6-5.244,17.209-10.473,25.533-15.516,5.843,2.614,10.525,5.338,15.768,6.827,3.3.939,7.444.155,11.186-.085s7.184-1.6,10.345-.978c6.3,1.234,11.426,1.482,17.049-2.18,5.363-3.491,12.006-7.331,18.31-7.812s13.087,3.057,19.63,4.88q2.48.935,5.243,1.746c5.663,1.14,11.706,3.522,16.989,2.731a23.013,23.013,0,0,1,11.906,1.148q17.509,6.051,35.138,11.839c1.381.458,3.662.776,4.622.186,5.783-3.452,11.346-.9,17.249-.729,8.2.248,16.909.776,24.573.2,11.666-.908,22.712-6.734,34.018-10.373a68.184,68.184,0,0,1,11.066-2.894c3.482-.5,7.424.551,10.686-.272,10-2.506,19.61-5.609,29.435-8.247a11.825,11.825,0,0,1,6.724.59c7.724,3.158,15.148,6.8,22.912,9.884,1.761.7,4.442-.054,6.684-.241,3.9-.318,9.125-2.18,11.426-.815,6.924,4.088,12.507,3.1,18.77-.372q5.284-2.631,11.326-5.012c8.325,5.058,16.949,10.279,25.554,15.516,4.2,2.576,8.284,4.081,13.367.954a68.567,68.567,0,0,1,10.505-4.655c1.181-.473,3-1.071,4-.675,9.025,3.926,17.889,8.107,26.914,12.064,1.821.776,4.762,1.808,6,1.195,7.124-3.313,12.547-.892,18.17,2.467,5.883,3.522,12.006,6.439,19.39,2.04,1.661-1.009,3.5-1.846,5.223-2.8,5.083-2.808,10.185-4.849,16.408-1.885a6.6,6.6,0,0,0,2.535.467,6.955,6.955,0,0,0,2.588-.42c7.044-2.878,14.508-5.431,20.711-9.248,6.423-3.933,11.706-4.531,17.829-.295,1.22.83,3.222.908,4.442,1.73,4.943,3.313,9.145,1.552,13.347-.978q12.907-7.882,25.714-15.64c2,.962,3.2,1.552,4.422,2.095,8.184,3.483,15.728,10.233,26.014,3,1.061-.776,4,.217,6,.45,3.642.419,7.884,2.056,10.846,1.1a118.26,118.26,0,0,0,22.312-9.511c3.662-2.079,6-1.823,9.345-.636,5.981,2.216,12.338,4.274,19.03,6.16,5.3,1.4,11.466,3.623,16.268,2.576,5.483-1.195,8.965.272,13.187,1.707,11.486,3.879,22.792,9.954,34.618,10.745a145.036,145.036,0,0,0,26.494-.341c5.543-.69,10.225-1.893,15.428.776,1.481.776,4.522.225,6.483-.411,12.226-3.964,24.213-8.394,36.559-12.056,3.482-1.032,8,.535,11.886-.047a153.939,153.939,0,0,0,16.929-4.011c6-1.676,12.006-3.6,18.61-5.555V443.418C1920.14,445.893,1920.38,448.368,1920.5,450.882Z" transform="translate(-0.5 -62.906)" fill="rgba(183,164,103,0.12)"/>
</svg>
